<svg width="32" height="32" viewBox="0 0 32 32" fill="none" xmlns="http://www.w3.org/2000/svg">
<path opacity="0.4" d="M22.2334 2.66675H9.77713C5.23787 2.66675 2.66602 5.2386 2.66602 9.77786V22.2223C2.66602 26.7616 5.23787 29.3334 9.77713 29.3334H22.2334C26.7727 29.3334 29.3327 26.7616 29.3327 22.2223V9.77786C29.3327 5.2386 26.7727 2.66675 22.2334 2.66675Z" fill="#0C7FDA"/>
<path d="M9.82488 12.4919C9.22043 12.4919 8.72266 12.9897 8.72266 13.606V22.7675C8.72266 23.3719 9.22043 23.8697 9.82488 23.8697C10.4412 23.8697 10.939 23.3719 10.939 22.7675V13.606C10.939 12.9897 10.4412 12.4919 9.82488 12.4919Z" fill="#0C7FDA"/>
<path d="M16.0456 8.11865C15.4411 8.11865 14.9434 8.61643 14.9434 9.23273V22.7675C14.9434 23.372 15.4411 23.8698 16.0456 23.8698C16.6619 23.8698 17.1597 23.372 17.1597 22.7675V9.23273C17.1597 8.61643 16.6619 8.11865 16.0456 8.11865Z" fill="#0C7FDA"/>
<path d="M22.1863 17.3276C21.57 17.3276 21.0723 17.8254 21.0723 18.4417V22.7676C21.0723 23.3721 21.57 23.8699 22.1745 23.8699C22.7908 23.8699 23.2886 23.3721 23.2886 22.7676V18.4417C23.2886 17.8254 22.7908 17.3276 22.1863 17.3276Z" fill="#0C7FDA"/>
</svg>
