<svg width="277" height="69" viewBox="0 0 277 69" fill="none" xmlns="http://www.w3.org/2000/svg">
<path d="M92.525 43L97.525 25.5H102.275L107.25 43H104.475L103.325 38.875H96.475L95.325 43H92.525ZM97.15 36.375H102.65L100.1 27.175H99.7L97.15 36.375ZM109.621 43V25.5H116.571C117.638 25.5 118.588 25.7167 119.421 26.15C120.271 26.5667 120.929 27.1667 121.396 27.95C121.879 28.7167 122.121 29.6417 122.121 30.725V31.05C122.121 32.1333 121.871 33.0667 121.371 33.85C120.888 34.6333 120.229 35.2333 119.396 35.65C118.563 36.0667 117.621 36.275 116.571 36.275H112.321V43H109.621ZM112.321 33.825H116.296C117.246 33.825 118.004 33.575 118.571 33.075C119.138 32.575 119.421 31.8917 119.421 31.025V30.775C119.421 29.8917 119.138 29.2 118.571 28.7C118.004 28.2 117.246 27.95 116.296 27.95H112.321V33.825ZM124.759 43V30.675H127.284V32.125H127.684C127.884 31.6083 128.201 31.2333 128.634 31C129.084 30.75 129.634 30.625 130.284 30.625H131.759V32.95H130.184C129.351 32.95 128.668 33.1833 128.134 33.65C127.601 34.1 127.334 34.8 127.334 35.75V43H124.759ZM139.763 43.35C138.53 43.35 137.43 43.1 136.463 42.6C135.513 42.0833 134.763 41.35 134.213 40.4C133.663 39.45 133.388 38.325 133.388 37.025V36.65C133.388 35.35 133.663 34.2333 134.213 33.3C134.763 32.35 135.513 31.6167 136.463 31.1C137.43 30.5833 138.53 30.325 139.763 30.325C140.996 30.325 142.096 30.5833 143.063 31.1C144.03 31.6167 144.788 32.35 145.338 33.3C145.888 34.2333 146.163 35.35 146.163 36.65V37.025C146.163 38.325 145.888 39.45 145.338 40.4C144.788 41.35 144.03 42.0833 143.063 42.6C142.096 43.1 140.996 43.35 139.763 43.35ZM139.763 41.05C140.896 41.05 141.813 40.6917 142.513 39.975C143.23 39.2417 143.588 38.2333 143.588 36.95V36.725C143.588 35.4417 143.238 34.4417 142.538 33.725C141.838 32.9917 140.913 32.625 139.763 32.625C138.646 32.625 137.73 32.9917 137.013 33.725C136.313 34.4417 135.963 35.4417 135.963 36.725V36.95C135.963 38.2333 136.313 39.2417 137.013 39.975C137.73 40.6917 138.646 41.05 139.763 41.05ZM147.019 48V45.775H148.694C149.177 45.775 149.419 45.525 149.419 45.025V30.675H151.994V45.525C151.994 46.275 151.777 46.875 151.344 47.325C150.91 47.775 150.302 48 149.519 48H147.019ZM150.719 29C150.219 29 149.794 28.8417 149.444 28.525C149.11 28.1917 148.944 27.7667 148.944 27.25C148.944 26.7333 149.11 26.3167 149.444 26C149.794 25.6667 150.219 25.5 150.719 25.5C151.235 25.5 151.66 25.6667 151.994 26C152.327 26.3167 152.494 26.7333 152.494 27.25C152.494 27.7667 152.327 28.1917 151.994 28.525C151.66 28.8417 151.235 29 150.719 29ZM161.464 43.35C160.214 43.35 159.122 43.0917 158.189 42.575C157.256 42.0417 156.522 41.3 155.989 40.35C155.472 39.3833 155.214 38.2667 155.214 37V36.7C155.214 35.4167 155.472 34.3 155.989 33.35C156.506 32.3833 157.222 31.6417 158.139 31.125C159.072 30.5917 160.147 30.325 161.364 30.325C162.547 30.325 163.581 30.5917 164.464 31.125C165.364 31.6417 166.064 32.3667 166.564 33.3C167.064 34.2333 167.314 35.325 167.314 36.575V37.55H157.839C157.872 38.6333 158.231 39.5 158.914 40.15C159.614 40.7833 160.481 41.1 161.514 41.1C162.481 41.1 163.206 40.8833 163.689 40.45C164.189 40.0167 164.572 39.5167 164.839 38.95L166.964 40.05C166.731 40.5167 166.389 41.0083 165.939 41.525C165.506 42.0417 164.931 42.475 164.214 42.825C163.497 43.175 162.581 43.35 161.464 43.35ZM157.864 35.575H164.689C164.622 34.6417 164.289 33.9167 163.689 33.4C163.089 32.8667 162.306 32.6 161.339 32.6C160.372 32.6 159.581 32.8667 158.964 33.4C158.364 33.9167 157.997 34.6417 157.864 35.575ZM176.139 43.35C174.955 43.35 173.88 43.1 172.914 42.6C171.964 42.1 171.205 41.375 170.639 40.425C170.089 39.475 169.814 38.3333 169.814 37V36.675C169.814 35.3417 170.089 34.2083 170.639 33.275C171.205 32.325 171.964 31.6 172.914 31.1C173.88 30.5833 174.955 30.325 176.139 30.325C177.322 30.325 178.33 30.5417 179.164 30.975C179.997 31.4083 180.664 31.9833 181.164 32.7C181.68 33.4167 182.014 34.2083 182.164 35.075L179.664 35.6C179.58 35.05 179.405 34.55 179.139 34.1C178.872 33.65 178.497 33.2917 178.014 33.025C177.53 32.7583 176.922 32.625 176.189 32.625C175.472 32.625 174.822 32.7917 174.239 33.125C173.672 33.4417 173.222 33.9083 172.889 34.525C172.555 35.125 172.389 35.8583 172.389 36.725V36.95C172.389 37.8167 172.555 38.5583 172.889 39.175C173.222 39.7917 173.672 40.2583 174.239 40.575C174.822 40.8917 175.472 41.05 176.189 41.05C177.272 41.05 178.097 40.775 178.664 40.225C179.23 39.6583 179.589 38.9417 179.739 38.075L182.239 38.65C182.039 39.5 181.68 40.2833 181.164 41C180.664 41.7167 179.997 42.2917 179.164 42.725C178.33 43.1417 177.322 43.35 176.139 43.35ZM189.37 43C188.62 43 188.02 42.775 187.57 42.325C187.136 41.875 186.92 41.275 186.92 40.525V32.85H183.52V30.675H186.92V26.6H189.495V30.675H193.17V32.85H189.495V40.075C189.495 40.575 189.728 40.825 190.195 40.825H192.77V43H189.37ZM202.695 43.35C200.545 43.35 198.837 42.75 197.57 41.55C196.303 40.3333 195.67 38.5833 195.67 36.3V32.2C195.67 29.9167 196.303 28.175 197.57 26.975C198.837 25.7583 200.545 25.15 202.695 25.15C204.845 25.15 206.553 25.7583 207.82 26.975C209.103 28.175 209.745 29.9167 209.745 32.2V36.3C209.745 38.5833 209.103 40.3333 207.82 41.55C206.553 42.75 204.845 43.35 202.695 43.35ZM202.695 40.925C204.078 40.925 205.145 40.525 205.895 39.725C206.645 38.9083 207.02 37.8 207.02 36.4V32.1C207.02 30.7 206.645 29.6 205.895 28.8C205.145 27.9833 204.078 27.575 202.695 27.575C201.345 27.575 200.287 27.9833 199.52 28.8C198.753 29.6 198.37 30.7 198.37 32.1V36.4C198.37 37.8 198.753 38.9083 199.52 39.725C200.287 40.525 201.345 40.925 202.695 40.925Z" fill="#0B3051"/>
<path opacity="0.6" d="M52.166 42C52.166 45.3188 50.5618 48.3188 47.9993 50.3625C45.791 52.1625 42.8743 53.25 39.666 53.25C32.7702 53.25 27.166 48.2063 27.166 42C27.166 36.825 31.0827 32.4375 36.3743 31.1438C37.8118 34.4063 40.8952 36.9188 44.7077 37.8563C45.7493 38.1188 46.8535 38.25 47.9993 38.25C49.1452 38.25 50.2493 38.1188 51.291 37.8563C51.8535 39.1313 52.166 40.5375 52.166 42Z" fill="#1E638A"/>
<path d="M60.5 27C60.5 28.4625 60.1875 29.8687 59.625 31.1438C58.1875 34.4062 55.1042 36.9188 51.2917 37.8563C50.25 38.1187 49.1458 38.25 48 38.25C46.8542 38.25 45.75 38.1187 44.7083 37.8563C40.8958 36.9188 37.8125 34.4062 36.375 31.1438C35.8125 29.8687 35.5 28.4625 35.5 27C35.5 20.7938 41.1042 15.75 48 15.75C54.8958 15.75 60.5 20.7938 60.5 27Z" fill="#1E638A"/>
<path opacity="0.4" d="M68.8333 42C68.8333 48.2063 63.2292 53.25 56.3333 53.25C53.125 53.25 50.2083 52.1625 48 50.3625C50.5625 48.3188 52.1667 45.3188 52.1667 42C52.1667 40.5375 51.8542 39.1313 51.2917 37.8563C55.1042 36.9188 58.1875 34.4063 59.625 31.1438C64.9167 32.4375 68.8333 36.825 68.8333 42Z" fill="#1E638A"/>
</svg>
