<svg width="51" height="52" viewBox="0 0 51 52" fill="none" xmlns="http://www.w3.org/2000/svg">
<g id="bi:person-plus-fill">
<g id="Group">
<path id="Vector" d="M6.14286 44.8608C6.14286 44.8608 3 44.8608 3 41.7179C3 38.5751 6.14286 29.1465 21.8571 29.1465C37.5714 29.1465 40.7143 38.5751 40.7143 41.7179C40.7143 44.8608 37.5714 44.8608 37.5714 44.8608H6.14286ZM21.8571 26.0036C24.3578 26.0036 26.756 25.0103 28.5242 23.2421C30.2924 21.4739 31.2857 19.0757 31.2857 16.5751C31.2857 14.0744 30.2924 11.6762 28.5242 9.90805C26.756 8.13985 24.3578 7.14648 21.8571 7.14648C19.3565 7.14648 16.9583 8.13985 15.1901 9.90805C13.4219 11.6762 12.4286 14.0744 12.4286 16.5751C12.4286 19.0757 13.4219 21.4739 15.1901 23.2421C16.9583 25.0103 19.3565 26.0036 21.8571 26.0036Z" fill="#828282"/>
</g>
</g>
</svg>
