<svg width="23" height="16" viewBox="0 0 23 16" fill="none" xmlns="http://www.w3.org/2000/svg">
<g id="Group">
<path id="Vector" d="M12.5496 4C12.5496 1.79 10.7484 0 8.52461 0C6.3008 0 4.49961 1.79 4.49961 4C4.49961 6.21 6.3008 8 8.52461 8C10.7484 8 12.5496 6.21 12.5496 4ZM10.5371 4C10.5371 5.1 9.63148 6 8.52461 6C7.41773 6 6.51211 5.1 6.51211 4C6.51211 2.9 7.41773 2 8.52461 2C9.63148 2 10.5371 2.9 10.5371 4ZM0.474609 14V16H16.5746V14C16.5746 11.34 11.2113 10 8.52461 10C5.83792 10 0.474609 11.34 0.474609 14ZM2.48711 14C2.68836 13.29 5.80773 12 8.52461 12C11.2314 12 14.3407 13.28 14.5621 14H2.48711ZM19.5934 11V8H22.6121V6H19.5934V3H17.5809V6H14.5621V8H17.5809V11H19.5934Z" fill="#4B4B4B"/>
</g>
</svg>
