<svg width="34" height="30" viewBox="0 0 34 30" fill="none" xmlns="http://www.w3.org/2000/svg">
<g id="Group">
<path id="Vector" d="M16.9522 27.379L16.9464 14.2726M28.9736 22.5122C30.1397 21.6922 31.0142 20.5219 31.4701 19.1712C31.926 17.8205 31.9396 16.3597 31.509 15.0008C30.6257 12.212 27.9193 10.6837 24.9944 10.6866H23.3044C22.9013 9.11419 22.1466 7.65373 21.0973 6.4152C20.048 5.17667 18.7314 4.19234 17.2465 3.53634C15.7617 2.88034 14.1474 2.56977 12.5252 2.628C10.903 2.68623 9.31509 3.11176 7.88113 3.87253C6.44717 4.63331 5.2045 5.7095 4.2467 7.02008C3.28889 8.33067 2.64091 9.84147 2.35155 11.4387C2.06219 13.036 2.13898 14.6781 2.57616 16.2414C3.01333 17.8047 3.79949 19.2485 4.87543 20.4639" stroke="#5D7285" stroke-width="3.5" stroke-linecap="round" stroke-linejoin="round"/>
<path id="Vector_2" d="M21.5801 17.6482L16.9463 13.0144L12.3125 17.6482" stroke="#5D7285" stroke-width="3.5" stroke-linecap="round" stroke-linejoin="round"/>
</g>
</svg>
