<svg width="27" height="24" viewBox="0 0 27 24" fill="none" xmlns="http://www.w3.org/2000/svg">
<g id="material-symbols:clock-loader-10">
<path id="Vector" d="M13.877 22C12.3723 22 10.9583 21.7373 9.63495 21.212C8.31158 20.6873 7.16044 19.975 6.18151 19.075C5.20259 18.175 4.42778 17.1167 3.8571 15.9C3.2857 14.6833 3 13.3833 3 12C3 10.6167 3.2857 9.31667 3.8571 8.1C4.42778 6.88333 5.20259 5.825 6.18151 4.925C7.16044 4.025 8.31158 3.31233 9.63495 2.787C10.9583 2.26233 12.3723 2 13.877 2C15.3816 2 16.7956 2.26233 18.119 2.787C19.4423 3.31233 20.5935 4.025 21.5724 4.925C22.5513 5.825 23.3261 6.88333 23.8968 8.1C24.4682 9.31667 24.7539 10.6167 24.7539 12C24.7539 13.3833 24.4682 14.6833 23.8968 15.9C23.3261 17.1167 22.5513 18.175 21.5724 19.075C20.5935 19.975 19.4423 20.6873 18.119 21.212C16.7956 21.7373 15.3816 22 13.877 22ZM13.877 20C16.3062 20 18.3637 19.225 20.0496 17.675C21.7356 16.125 22.5785 14.2333 22.5785 12C22.5785 10.9333 22.361 9.90833 21.9259 8.925C21.4908 7.94167 20.8654 7.075 20.0496 6.325L13.877 12V4C11.4478 4 9.39022 4.775 7.70429 6.325C6.01836 7.875 5.17539 9.76667 5.17539 12C5.17539 14.2333 6.01836 16.125 7.70429 17.675C9.39022 19.225 11.4478 20 13.877 20Z" fill="#4BA665"/>
</g>
</svg>
