<svg width="32" height="32" viewBox="0 0 32 32" fill="none" xmlns="http://www.w3.org/2000/svg">
<path d="M13.0444 5.68894C13.1259 5.85481 13.1797 6.03243 13.2038 6.21504L13.6493 12.8389L13.8705 16.1682C13.8727 16.5106 13.9265 16.8508 14.0299 17.1778C14.297 17.8122 14.9395 18.2154 15.6385 18.1873L26.2901 17.4906C26.7514 17.483 27.1968 17.6555 27.5284 17.9701C27.8047 18.2324 27.9831 18.5754 28.0393 18.9444L28.0582 19.1684C27.6174 25.2719 23.1347 30.3627 17.0438 31.6769C10.9529 32.991 4.70698 30.215 1.69714 24.8559C0.82942 23.299 0.28744 21.5877 0.103011 19.8225C0.0259657 19.2999 -0.00795922 18.7721 0.00156676 18.2442C-0.00794552 11.7005 4.65195 6.04323 11.1749 4.6794C11.96 4.55716 12.7296 4.97277 13.0444 5.68894Z" fill="#0C7FDA"/>
<path opacity="0.4" d="M17.3937 0.0013107C24.6895 0.186922 30.8214 5.43326 32.0017 12.4997L31.9904 12.5518L31.9582 12.6276L31.9627 12.8358C31.946 13.1115 31.8395 13.3769 31.656 13.5912C31.4649 13.8144 31.2038 13.9664 30.9162 14.0255L30.7409 14.0495L18.4516 14.8458C18.0428 14.8861 17.6358 14.7543 17.3318 14.4831C17.0785 14.2572 16.9165 13.9521 16.8708 13.6235L16.0459 1.3521C16.0316 1.31061 16.0316 1.26562 16.0459 1.22413C16.0572 0.885875 16.2061 0.566144 16.4593 0.336368C16.7126 0.106592 17.0491 -0.0140806 17.3937 0.0013107Z" fill="#0C7FDA"/>
</svg>
