<svg width="40" height="21" viewBox="0 0 40 21" fill="none" xmlns="http://www.w3.org/2000/svg">
<path d="M0.941828 17V15.736C0.941828 14.9573 1.07516 14.3173 1.34183 13.816C1.60849 13.3147 1.98716 12.9093 2.47783 12.6C2.97916 12.28 3.58183 12.0133 4.28583 11.8L5.26183 11.496C5.69916 11.3573 6.0725 11.1867 6.38183 10.984C6.70183 10.7813 6.94716 10.5307 7.11783 10.232C7.2885 9.92267 7.37383 9.56533 7.37383 9.16V9.096C7.37383 8.46667 7.1605 7.976 6.73383 7.624C6.30716 7.26133 5.74716 7.08 5.05383 7.08C4.33916 7.08 3.75783 7.272 3.30983 7.656C2.87249 8.04 2.65383 8.60533 2.65383 9.352V9.608H0.989828V9.368C0.989828 8.55733 1.16583 7.87467 1.51783 7.32C1.86983 6.75467 2.35516 6.32267 2.97383 6.024C3.59249 5.72533 4.28583 5.576 5.05383 5.576C5.82183 5.576 6.50449 5.72 7.10183 6.008C7.70983 6.296 8.18449 6.70133 8.52583 7.224C8.87783 7.74667 9.05383 8.36 9.05383 9.064V9.208C9.05383 9.93333 8.90983 10.536 8.62183 11.016C8.33383 11.496 7.93383 11.8907 7.42183 12.2C6.9205 12.5093 6.33916 12.7707 5.67783 12.984L4.73383 13.272C4.23249 13.4213 3.82716 13.5867 3.51783 13.768C3.21916 13.9387 2.99516 14.1467 2.84583 14.392C2.70716 14.6373 2.63783 14.952 2.63783 15.336V15.496H8.95783V17H0.941828Z" fill="black"/>
<path d="M24.1004 0.171559C24.0548 0.117181 24.0006 0.0740346 23.9409 0.0445946C23.8812 0.0151546 23.8173 0 23.7526 0C23.688 0 23.624 0.0151546 23.5644 0.0445946C23.5047 0.0740346 23.4505 0.117181 23.4049 0.171559L20.7996 3.24892L19.8709 2.17371C19.8253 2.11934 19.7711 2.07619 19.7114 2.04675C19.6517 2.01731 19.5878 2.00216 19.5231 2.00216C19.4585 2.00216 19.3945 2.01731 19.3349 2.04675C19.2752 2.07619 19.221 2.11934 19.1754 2.17371L18.5331 2.93783C18.4873 2.99202 18.451 3.05641 18.4262 3.12731C18.4014 3.19821 18.3887 3.27423 18.3887 3.351C18.3887 3.42777 18.4014 3.50378 18.4262 3.57468C18.451 3.64558 18.4873 3.70997 18.5331 3.76416L20.4801 6.06817C20.5773 6.17793 20.7062 6.23913 20.8403 6.23913C20.9744 6.23913 21.1034 6.17793 21.2005 6.06817L21.8384 5.30892L24.7922 1.79992C24.8842 1.69049 24.9363 1.54235 24.9369 1.38765C24.9376 1.23295 24.887 1.08417 24.7959 0.973588L24.1004 0.171559ZM24.1004 7.90943C24.0548 7.85506 24.0006 7.81191 23.9409 7.78247C23.8812 7.75303 23.8173 7.73788 23.7526 7.73788C23.688 7.73788 23.624 7.75303 23.5644 7.78247C23.5047 7.81191 23.4505 7.85506 23.4049 7.90943L20.7996 11.0067L19.8709 9.93249C19.8253 9.87811 19.7711 9.83497 19.7114 9.80553C19.6517 9.77609 19.5878 9.76093 19.5231 9.76093C19.4585 9.76093 19.3945 9.77609 19.3349 9.80553C19.2752 9.83497 19.221 9.87811 19.1754 9.93249L18.5331 10.6951C18.4873 10.7493 18.451 10.8137 18.4262 10.8846C18.4014 10.9555 18.3887 11.0315 18.3887 11.1083C18.3887 11.1851 18.4014 11.2611 18.4262 11.332C18.451 11.4029 18.4873 11.4673 18.5331 11.5215L20.4752 13.8303C20.5723 13.9401 20.7012 14.0013 20.8352 14.0013C20.9692 14.0013 21.0981 13.9401 21.1952 13.8303L21.8375 13.0677L24.7914 9.55724C24.8831 9.44857 24.9349 9.30126 24.9356 9.1474C24.9363 8.99354 24.8858 8.84559 24.7951 8.73577L24.1004 7.90943ZM21.007 16.3337C19.9233 16.3337 19.0191 17.3787 19.0191 18.6668C19.0191 19.9549 19.9241 21 21.007 21C21.5279 21 22.0273 20.7542 22.3956 20.3166C22.7639 19.8791 22.9708 19.2856 22.9708 18.6668C22.9708 18.048 22.7639 17.4546 22.3956 17.017C22.0273 16.5795 21.5279 16.3337 21.007 16.3337ZM38.6811 17.1114H26.8984C26.7248 17.1114 26.5583 17.1933 26.4355 17.3392C26.3127 17.485 26.2438 17.6828 26.2438 17.8891V19.4445C26.2438 19.6508 26.3127 19.8486 26.4355 19.9945C26.5583 20.1403 26.7248 20.2223 26.8984 20.2223H38.6811C38.8547 20.2223 39.0212 20.1403 39.1439 19.9945C39.2667 19.8486 39.3357 19.6508 39.3357 19.4445V17.8891C39.3357 17.6828 39.2667 17.485 39.1439 17.3392C39.0212 17.1933 38.8547 17.1114 38.6811 17.1114ZM38.6811 1.55688H26.8984C26.7248 1.55688 26.5583 1.63882 26.4355 1.78467C26.3127 1.93052 26.2438 2.12834 26.2438 2.33461V3.89006C26.2438 4.09632 26.3127 4.29414 26.4355 4.43999C26.5583 4.58584 26.7248 4.66778 26.8984 4.66778H38.6811C38.8547 4.66778 39.0212 4.58584 39.1439 4.43999C39.2667 4.29414 39.3357 4.09632 39.3357 3.89006V2.33461C39.3357 2.12834 39.2667 1.93052 39.1439 1.78467C39.0212 1.63882 38.8547 1.55688 38.6811 1.55688ZM38.6811 9.33413H26.8984C26.7248 9.33413 26.5583 9.41607 26.4355 9.56192C26.3127 9.70777 26.2438 9.90559 26.2438 10.1119V11.6673C26.2438 11.8736 26.3127 12.0714 26.4355 12.2172C26.5583 12.3631 26.7248 12.445 26.8984 12.445H38.6811C38.8547 12.445 39.0212 12.3631 39.1439 12.2172C39.2667 12.0714 39.3357 11.8736 39.3357 11.6673V10.1119C39.3357 9.90559 39.2667 9.70777 39.1439 9.56192C39.0212 9.41607 38.8547 9.33413 38.6811 9.33413Z" fill="black"/>
</svg>
