<svg width="29" height="30" viewBox="0 0 29 30" fill="none" xmlns="http://www.w3.org/2000/svg">
<g id="more-vertical">
<path id="Vector" d="M14.9482 15.8437C15.5948 15.8437 16.119 15.2981 16.119 14.625C16.119 13.9519 15.5948 13.4062 14.9482 13.4062C14.3015 13.4062 13.7773 13.9519 13.7773 14.625C13.7773 15.2981 14.3015 15.8437 14.9482 15.8437Z" stroke="black" stroke-width="2" stroke-linecap="round" stroke-linejoin="round"/>
<path id="Vector_2" d="M14.9482 7.3125C15.5948 7.3125 16.119 6.76685 16.119 6.09375C16.119 5.42065 15.5948 4.875 14.9482 4.875C14.3015 4.875 13.7773 5.42065 13.7773 6.09375C13.7773 6.76685 14.3015 7.3125 14.9482 7.3125Z" stroke="black" stroke-width="2" stroke-linecap="round" stroke-linejoin="round"/>
<path id="Vector_3" d="M14.9482 24.375C15.5948 24.375 16.119 23.8293 16.119 23.1562C16.119 22.4832 15.5948 21.9375 14.9482 21.9375C14.3015 21.9375 13.7773 22.4832 13.7773 23.1562C13.7773 23.8293 14.3015 24.375 14.9482 24.375Z" stroke="black" stroke-width="2" stroke-linecap="round" stroke-linejoin="round"/>
</g>
</svg>
