<svg width="300" height="18" viewBox="0 0 300 18" fill="none" xmlns="http://www.w3.org/2000/svg">
<g opacity="0.5">
<rect opacity="0.2" y="8.5" width="132.5" height="1" fill="black"/>
<path d="M145.571 14.196C144.367 14.196 143.411 13.86 142.701 13.188C141.992 12.5067 141.637 11.5267 141.637 10.248V7.952C141.637 6.67333 141.992 5.698 142.701 5.026C143.411 4.34467 144.367 4.004 145.571 4.004C146.775 4.004 147.732 4.34467 148.441 5.026C149.16 5.698 149.519 6.67333 149.519 7.952V10.248C149.519 11.5267 149.16 12.5067 148.441 13.188C147.732 13.86 146.775 14.196 145.571 14.196ZM145.571 12.838C146.346 12.838 146.943 12.614 147.363 12.166C147.783 11.7087 147.993 11.088 147.993 10.304V7.896C147.993 7.112 147.783 6.496 147.363 6.048C146.943 5.59067 146.346 5.362 145.571 5.362C144.815 5.362 144.223 5.59067 143.793 6.048C143.364 6.496 143.149 7.112 143.149 7.896V10.304C143.149 11.088 143.364 11.7087 143.793 12.166C144.223 12.614 144.815 12.838 145.571 12.838ZM151.309 14V4.2H155.425C156.032 4.2 156.564 4.30733 157.021 4.522C157.488 4.72733 157.847 5.026 158.099 5.418C158.36 5.81 158.491 6.27667 158.491 6.818V6.972C158.491 7.588 158.342 8.08267 158.043 8.456C157.754 8.82 157.399 9.07667 156.979 9.226V9.45C157.334 9.46867 157.618 9.59 157.833 9.814C158.048 10.0287 158.155 10.3413 158.155 10.752V14H156.629V10.962C156.629 10.71 156.564 10.5093 156.433 10.36C156.302 10.2107 156.092 10.136 155.803 10.136H152.821V14H151.309ZM152.821 8.764H155.257C155.798 8.764 156.218 8.62867 156.517 8.358C156.816 8.078 156.965 7.7 156.965 7.224V7.112C156.965 6.636 156.816 6.26267 156.517 5.992C156.228 5.712 155.808 5.572 155.257 5.572H152.821V8.764Z" fill="black"/>
<rect opacity="0.2" x="167.5" y="8.5" width="132.5" height="1" fill="black"/>
</g>
</svg>
